<svg width="96" height="96" xmlns="http://www.w3.org/2000/svg" xmlns:xlink="http://www.w3.org/1999/xlink" xml:space="preserve" overflow="hidden"><g transform="translate(-592 -372)"><g><path d="M625 402.8C625 407.771 620.971 411.8 616 411.8 611.029 411.8 607 407.771 607 402.8 607 397.829 611.029 393.8 616 393.8 620.971 393.8 625 397.829 625 402.8Z" fill="#FFFFFF" fill-rule="nonzero" fill-opacity="1"/><path d="M673 402.8C673 407.771 668.971 411.8 664 411.8 659.029 411.8 655 407.771 655 402.8 655 397.829 659.029 393.8 664 393.8 668.971 393.8 673 397.829 673 402.8Z" fill="#FFFFFF" fill-rule="nonzero" fill-opacity="1"/><path d="M658 446.2 658 437.2C658 435.8 657.4 434.4 656.2 433.6 653.8 431.6 650.6 430.2 647.4 429.4 645.2 428.8 642.6 428.2 640 428.2 637.6 428.2 635 428.6 632.6 429.4 629.4 430.2 626.4 431.8 623.8 433.6 622.6 434.6 622 435.8 622 437.2L622 446.2 658 446.2Z" fill="#FFFFFF" fill-rule="nonzero" fill-opacity="1"/><path d="M649 416.8C649 421.771 644.971 425.8 640 425.8 635.029 425.8 631 421.771 631 416.8 631 411.829 635.029 407.8 640 407.8 644.971 407.8 649 411.829 649 416.8Z" fill="#FFFFFF" fill-rule="nonzero" fill-opacity="1"/><path d="M680.2 419.6C677.8 417.6 674.6 416.2 671.4 415.4 669.2 414.8 666.6 414.2 664 414.2 661.6 414.2 659 414.6 656.6 415.4 655.4 415.8 654.2 416.2 653 416.8L653 417C653 420.4 651.6 423.6 649.4 425.8 653.2 427 656.2 428.6 658.6 430.4 659.2 431 659.8 431.4 660.2 432.2L682 432.2 682 423.2C682 421.8 681.4 420.4 680.2 419.6Z" fill="#FFFFFF" fill-rule="nonzero" fill-opacity="1"/><path d="M621.4 430.4 621.4 430.4C624.2 428.4 627.4 426.8 630.6 425.8 628.4 423.4 627 420.4 627 417 627 416.8 627 416.8 627 416.6 625.8 416.2 624.6 415.6 623.4 415.4 621.2 414.8 618.6 414.2 616 414.2 613.6 414.2 611 414.6 608.6 415.4 605.4 416.4 602.4 417.8 599.8 419.6 598.6 420.4 598 421.8 598 423.2L598 432.2 619.6 432.2C620.2 431.4 620.6 431 621.4 430.4Z" fill="#FFFFFF" fill-rule="nonzero" fill-opacity="1"/></g></g></svg>