<svg width="97" height="96" xmlns="http://www.w3.org/2000/svg" xmlns:xlink="http://www.w3.org/1999/xlink" xml:space="preserve" overflow="hidden"><g transform="translate(-580 -168)"><g><g><g><g><path d="M631.87 177.3C639.045 185.158 648.935 189.999 659.542 190.846 661.513 191.031 663.014 192.692 663 194.671L663 204.325C663 225.31 649.653 244.508 631.121 256.387 629.848 257.204 628.215 257.204 626.942 256.387 608.41 244.508 595.063 225.31 595.063 204.325L595.063 194.671C595.049 192.692 596.55 191.031 598.521 190.846 609.128 189.999 619.018 185.158 626.193 177.3 627.546 175.732 629.913 175.558 631.481 176.911 631.62 177.031 631.75 177.161 631.87 177.3Z" fill="#002060" fill-rule="nonzero" fill-opacity="1"/></g></g></g></g></g></svg>