<svg width="96" height="96" xmlns="http://www.w3.org/2000/svg" xmlns:xlink="http://www.w3.org/1999/xlink" xml:space="preserve" overflow="hidden"><g transform="translate(-592 -372)"><g><path d="M666 429C663.8 429 662 427.2 662 425 662 422.8 663.8 421 666 421 668.2 421 670 422.8 670 425 670 427.2 668.2 429 666 429ZM676 415 674 415 674 404C674 401.8 672.2 400 670 400L614 400C612.9 400 612 399.1 612 398 612 396.9 612.9 396 614 396L670 396 670 394C670 391.8 668.2 390 666 390L614 390C609.6 390 606 393.6 606 398L606 442C606 446.4 609.6 450 614 450L670 450C672.2 450 674 448.2 674 446L674 435 676 435C677.1 435 678 434.1 678 433L678 417C678 415.9 677.1 415 676 415Z" fill="#07224A" fill-rule="nonzero" fill-opacity="1"/></g></g></svg>